# xmcd
#
# Track frame offsets:
#	150
#	10518
#	20423
#	30096
#	43990
#	54128
#	68712
#	84077
#	99970
#	110802
#	127762
#	140852
#	153913
#	166931
#	179819
#
# Disc length: 2660 seconds
#
# Revision: 1
# Processed by: cddbd v1.5.2PL0 Copyright (c) Steve Scherf et al.
# Submitted via: audiograbber 1.83.01
#
DISCID=b10a620f
DTITLE=Various Artist - 60 Greatest Trucker and Country Hits - CD2
DYEAR=2018
DGENRE=Country
TTITLE0=Dave Dudley - Six Days On The Road
TTITLE1=Willie Nelson - Healing Hands Of Time
TTITLE2=Billy Swan - I Can Help
TTITLE3=Juice Newton - Listen To The Radio
TTITLE4=Statler Brothers - Do You Know You Are My Sunshine
TTITLE5=Robert Mitchum - O-He, O-Hi, O-Ho
TTITLE6=Boxcar Willie - Forty-Nine Nights
TTITLE7=Connie Francis - It Doesn't Matter Anymore
TTITLE8=Lynn Anderson - Blue Bayou
TTITLE9=Tanya Tucker - The Man That Turned My Mama On
TTITLE10=Bobby Bare - Detroit City
TTITLE11=Hank Williams - Jambalaya (On The Bayou)
TTITLE12=Johnny Horton - North To Alaska
TTITLE13=Johnny Cash - Cold Cold Heart
TTITLE14=Lee Hazlewood - The Ballad Of Lucy Jordan
EXTD=
EXTT0=
EXTT1=
EXTT2=
EXTT3=
EXTT4=
EXTT5=
EXTT6=
EXTT7=
EXTT8=
EXTT9=
EXTT10=
EXTT11=
EXTT12=
EXTT13=
EXTT14=
PLAYORDER=
